<svg width="20" height="12" viewBox="0 0 20 12" fill="none" xmlns="http://www.w3.org/2000/svg">
<path d="M0.776953 0.65918C1.02695 0.40918 1.32295 0.28418 1.66495 0.28418C2.00695 0.28418 2.30262 0.40918 2.55195 0.65918L9.87695 7.98418L17.227 0.63418C17.4603 0.400846 17.752 0.28418 18.102 0.28418C18.452 0.28418 18.752 0.40918 19.002 0.65918C19.252 0.90918 19.377 1.20518 19.377 1.54718C19.377 1.88918 19.252 2.18485 19.002 2.43418L10.577 10.8342C10.477 10.9342 10.3686 11.0052 10.252 11.0472C10.1353 11.0892 10.0103 11.1098 9.87695 11.1092C9.74362 11.1092 9.61862 11.0882 9.50195 11.0462C9.38529 11.0042 9.27695 10.9335 9.17695 10.8342L0.751953 2.40918C0.51862 2.17585 0.401953 1.88818 0.401953 1.54618C0.401953 1.20418 0.526953 0.908513 0.776953 0.65918Z" fill="#C74A76"/>
</svg>
