<svg width="20" height="12" viewBox="0 0 20 12" fill="none" xmlns="http://www.w3.org/2000/svg">
<path d="M18.977 10.9028C18.727 11.1528 18.431 11.2778 18.089 11.2778C17.747 11.2778 17.4513 11.1528 17.202 10.9028L9.87695 3.57783L2.52695 10.9278C2.29362 11.1612 2.00195 11.2778 1.65195 11.2778C1.30195 11.2778 1.00195 11.1528 0.751953 10.9028C0.501953 10.6528 0.376953 10.3568 0.376953 10.0148C0.376953 9.67283 0.501953 9.37717 0.751953 9.12783L9.17695 0.727831C9.27695 0.627831 9.38529 0.556832 9.50195 0.514832C9.61862 0.472832 9.74362 0.452165 9.87695 0.452831C10.0103 0.452831 10.1353 0.473831 10.252 0.515831C10.3686 0.557831 10.477 0.628498 10.577 0.727831L19.002 9.15283C19.2353 9.38617 19.352 9.67383 19.352 10.0158C19.352 10.3578 19.227 10.6535 18.977 10.9028Z" fill="#C74A76"/>
</svg>
