<svg width="17" height="17" viewBox="0 0 17 17" fill="none" xmlns="http://www.w3.org/2000/svg">
<path d="M12.7545 4.50623C12.3524 4.50623 11.9832 4.27548 11.7986 3.91947L11.3239 2.96353C11.0206 2.36359 10.2295 1.86914 9.55704 1.86914H8.04731C7.36826 1.86914 6.57713 2.36359 6.27387 2.96353L5.79919 3.91947C5.6146 4.27548 5.24541 4.50623 4.84325 4.50623C3.41263 4.50623 2.27869 5.71269 2.37098 7.13672L2.7138 12.5823C2.79292 13.9404 3.52471 15.0546 5.3443 15.0546H12.2535C14.073 15.0546 14.7982 13.9404 14.884 12.5823L15.2268 7.13672C15.3191 5.71269 14.1851 4.50623 12.7545 4.50623ZM7.80997 5.33031H9.78779C10.0581 5.33031 10.2822 5.55447 10.2822 5.82477C10.2822 6.09507 10.0581 6.31922 9.78779 6.31922H7.80997C7.53967 6.31922 7.31552 6.09507 7.31552 5.82477C7.31552 5.55447 7.53967 5.33031 7.80997 5.33031ZM8.79888 12.4966C7.57263 12.4966 6.57054 11.5011 6.57054 10.2683C6.57054 9.03542 7.56604 8.03992 8.79888 8.03992C10.0317 8.03992 11.0272 9.03542 11.0272 10.2683C11.0272 11.5011 10.0251 12.4966 8.79888 12.4966Z" fill="white"/>
</svg>
