<svg width="25" height="25" viewBox="0 0 25 25" fill="none" xmlns="http://www.w3.org/2000/svg">
<path d="M3.9165 6.50785H2.4165C2.21759 6.50785 2.02683 6.42883 1.88617 6.28818C1.74552 6.14753 1.6665 5.95676 1.6665 5.75785C1.6665 5.55894 1.74552 5.36817 1.88617 5.22752C2.02683 5.08687 2.21759 5.00785 2.4165 5.00785H8.4165V2.75635C8.4165 2.55744 8.49552 2.36667 8.63617 2.22602C8.77683 2.08537 8.96759 2.00635 9.1665 2.00635H15.1665C15.3654 2.00635 15.5562 2.08537 15.6968 2.22602C15.8375 2.36667 15.9165 2.55744 15.9165 2.75635V5.00785H21.9165C22.1154 5.00785 22.3062 5.08687 22.4468 5.22752C22.5875 5.36817 22.6665 5.55894 22.6665 5.75785C22.6665 5.95676 22.5875 6.14753 22.4468 6.28818C22.3062 6.42883 22.1154 6.50785 21.9165 6.50785H20.4165V22.2578C20.4165 22.4568 20.3375 22.6475 20.1968 22.7882C20.0562 22.9288 19.8654 23.0078 19.6665 23.0078H4.6665C4.46759 23.0078 4.27683 22.9288 4.13617 22.7882C3.99552 22.6475 3.9165 22.4568 3.9165 22.2578V6.50785ZM14.4165 5.00785V3.50785H9.9165V5.00785H14.4165ZM5.4165 21.5078H18.9165V6.50785H5.4165V21.5078ZM9.9165 18.5078C9.71759 18.5078 9.52683 18.4288 9.38617 18.2882C9.24552 18.1475 9.1665 17.9568 9.1665 17.7578V10.2578C9.1665 10.0589 9.24552 9.86817 9.38617 9.72752C9.52683 9.58687 9.71759 9.50785 9.9165 9.50785C10.1154 9.50785 10.3062 9.58687 10.4468 9.72752C10.5875 9.86817 10.6665 10.0589 10.6665 10.2578V17.7578C10.6665 17.9568 10.5875 18.1475 10.4468 18.2882C10.3062 18.4288 10.1154 18.5078 9.9165 18.5078ZM14.4165 18.5078C14.2176 18.5078 14.0268 18.4288 13.8862 18.2882C13.7455 18.1475 13.6665 17.9568 13.6665 17.7578V10.2578C13.6665 10.0589 13.7455 9.86817 13.8862 9.72752C14.0268 9.58687 14.2176 9.50785 14.4165 9.50785C14.6154 9.50785 14.8062 9.58687 14.9468 9.72752C15.0875 9.86817 15.1665 10.0589 15.1665 10.2578V17.7578C15.1665 17.9568 15.0875 18.1475 14.9468 18.2882C14.8062 18.4288 14.6154 18.5078 14.4165 18.5078Z" fill="#3F3F3F"/>
</svg>
