<svg width="25" height="25" viewBox="0 0 25 25" fill="none" xmlns="http://www.w3.org/2000/svg">
<path d="M12.1475 2.42578C6.29746 2.42578 1.64746 7.07578 1.64746 12.9258C1.64746 18.7758 6.29746 23.4258 12.1475 23.4258C17.9975 23.4258 22.6475 18.7758 22.6475 12.9258C22.6475 7.07578 17.9975 2.42578 12.1475 2.42578ZM12.1475 21.9258C7.19746 21.9258 3.14746 17.8758 3.14746 12.9258C3.14746 7.97578 7.19746 3.92578 12.1475 3.92578C17.0975 3.92578 21.1475 7.97578 21.1475 12.9258C21.1475 17.8758 17.0975 21.9258 12.1475 21.9258Z" fill="#D70808"/>
<path d="M16.1975 18.1758L12.1475 14.1258L8.09746 18.1758L6.89746 16.9758L10.9475 12.9258L6.89746 8.87578L8.09746 7.67578L12.1475 11.7258L16.1975 7.67578L17.3975 8.87578L13.3475 12.9258L17.3975 16.9758L16.1975 18.1758Z" fill="#D70808"/>
</svg>
