<svg width="15" height="15" viewBox="0 0 15 15" fill="none" xmlns="http://www.w3.org/2000/svg">
<path d="M5.86638 9.44054L3.84221 7.41637C3.73314 7.3073 3.58521 7.24603 3.43096 7.24603C3.27671 7.24603 3.12878 7.3073 3.01971 7.41637C2.91064 7.52544 2.84937 7.67338 2.84937 7.82762C2.84937 7.904 2.86441 7.97963 2.89364 8.05019C2.92286 8.12075 2.9657 8.18487 3.01971 8.23887L5.45804 10.6772C5.68554 10.9047 6.05304 10.9047 6.28054 10.6772L12.4522 4.50554C12.5613 4.39647 12.6226 4.24854 12.6226 4.09429C12.6226 3.94004 12.5613 3.79211 12.4522 3.68304C12.3431 3.57397 12.1952 3.5127 12.041 3.5127C11.8867 3.5127 11.7388 3.57397 11.6297 3.68304L5.86638 9.44054Z" fill="#21B64B"/>
</svg>
