<svg width="20" height="21" viewBox="0 0 20 21" fill="none" xmlns="http://www.w3.org/2000/svg">
<path d="M19.2652 8.34297C19.3882 9.00197 19.4552 9.69097 19.4552 10.41C19.4552 16.034 15.6912 20.033 10.0062 20.033C8.71336 20.0334 7.43311 19.779 6.2386 19.2844C5.04409 18.7899 3.95874 18.0648 3.04456 17.1506C2.13038 16.2364 1.4053 15.1511 0.910728 13.9566C0.416161 12.7621 0.161807 11.4818 0.162201 10.189C0.161807 8.89613 0.416161 7.61588 0.910728 6.42137C1.4053 5.22686 2.13038 4.14151 3.04456 3.22733C3.95874 2.31315 5.04409 1.58807 6.2386 1.0935C7.43311 0.598931 8.71336 0.344577 10.0062 0.344971C12.6642 0.344971 14.8852 1.32297 16.5892 2.91097L13.8142 5.68597V5.67897C12.7812 4.69497 11.4702 4.18997 10.0062 4.18997C6.7582 4.18997 4.1182 6.93397 4.1182 10.183C4.1182 13.431 6.7582 16.181 10.0062 16.181C12.9532 16.181 14.9592 14.496 15.3712 12.182H10.0062V8.34297H19.2662H19.2652Z" fill="white"/>
</svg>
