<svg width="25" height="25" viewBox="0 0 25 25" fill="none" xmlns="http://www.w3.org/2000/svg">
<path d="M21.8435 16.1016H20.906V6.91406C20.906 6.36705 20.6887 5.84245 20.3019 5.45565C19.9151 5.06886 19.3905 4.85156 18.8435 4.85156H5.34351C4.7965 4.85156 4.27189 5.06886 3.8851 5.45565C3.4983 5.84245 3.28101 6.36705 3.28101 6.91406V16.1016H2.34351C2.19432 16.1016 2.05125 16.1608 1.94576 16.2663C1.84027 16.3718 1.78101 16.5149 1.78101 16.6641V18.1641C1.78101 18.7111 1.9983 19.2357 2.3851 19.6225C2.77189 20.0093 3.2965 20.2266 3.84351 20.2266H20.3435C20.8905 20.2266 21.4151 20.0093 21.8019 19.6225C22.1887 19.2357 22.406 18.7111 22.406 18.1641V16.6641C22.406 16.5149 22.3467 16.3718 22.2413 16.2663C22.1358 16.1608 21.9927 16.1016 21.8435 16.1016ZM4.40601 6.91406C4.40601 6.66542 4.50478 6.42697 4.68059 6.25115C4.85641 6.07533 5.09487 5.97656 5.34351 5.97656H18.8435C19.0921 5.97656 19.3306 6.07533 19.5064 6.25115C19.6822 6.42697 19.781 6.66542 19.781 6.91406V16.1016H4.40601V6.91406ZM21.281 18.1641C21.281 18.4127 21.1822 18.6512 21.0064 18.827C20.8306 19.0028 20.5921 19.1016 20.3435 19.1016H3.84351C3.59487 19.1016 3.35641 19.0028 3.18059 18.827C3.00478 18.6512 2.90601 18.4127 2.90601 18.1641V17.2266H21.281V18.1641ZM14.156 8.41406C14.156 8.56325 14.0967 8.70632 13.9913 8.81181C13.8858 8.9173 13.7427 8.97656 13.5935 8.97656H10.5935C10.4443 8.97656 10.3012 8.9173 10.1958 8.81181C10.0903 8.70632 10.031 8.56325 10.031 8.41406C10.031 8.26488 10.0903 8.1218 10.1958 8.01632C10.3012 7.91083 10.4443 7.85156 10.5935 7.85156H13.5935C13.7427 7.85156 13.8858 7.91083 13.9913 8.01632C14.0967 8.1218 14.156 8.26488 14.156 8.41406Z" fill="black"/>
</svg>
