<svg width="25" height="25" viewBox="0 0 25 25" fill="none" xmlns="http://www.w3.org/2000/svg">
<path d="M7.16475 5.79208C7.25772 5.88495 7.33148 5.99524 7.38181 6.11664C7.43213 6.23804 7.45803 6.36816 7.45803 6.49958C7.45803 6.631 7.43213 6.76112 7.38181 6.88252C7.33148 7.00392 7.25772 7.11421 7.16475 7.20708C5.66418 8.70789 4.8212 10.7433 4.8212 12.8656C4.8212 14.9879 5.66418 17.0233 7.16475 18.5241C7.26026 18.6163 7.33644 18.7267 7.38885 18.8487C7.44126 18.9707 7.46884 19.1019 7.47 19.2347C7.47115 19.3675 7.44585 19.4991 7.39557 19.622C7.34529 19.7449 7.27103 19.8566 7.17714 19.9505C7.08325 20.0444 6.9716 20.1186 6.8487 20.1689C6.7258 20.2192 6.59412 20.2445 6.46134 20.2433C6.32857 20.2422 6.19735 20.2146 6.07534 20.1622C5.95334 20.1098 5.84299 20.0336 5.75075 19.9381C1.84375 16.0321 1.84375 9.69808 5.75075 5.79208C5.93827 5.60461 6.19258 5.49929 6.45775 5.49929C6.72291 5.49929 6.97722 5.60461 7.16475 5.79208ZM19.8967 5.79208C23.8027 9.69908 23.8027 16.0321 19.8967 19.9381C19.7092 20.1257 19.4549 20.2312 19.1896 20.2313C18.9243 20.2314 18.6699 20.1261 18.4822 19.9386C18.2946 19.7511 18.1891 19.4967 18.189 19.2314C18.189 18.9662 18.2942 18.7117 18.4817 18.5241C19.9823 17.0233 20.8253 14.9879 20.8253 12.8656C20.8253 10.7433 19.9823 8.70789 18.4817 7.20708C18.2941 7.01944 18.1887 6.76494 18.1887 6.49958C18.1887 6.23422 18.2941 5.97972 18.4817 5.79208C18.6694 5.60444 18.9239 5.49902 19.1892 5.49902C19.4546 5.49902 19.7091 5.60444 19.8967 5.79208ZM10.1317 8.66608C10.3192 8.85361 10.4245 9.10792 10.4245 9.37308C10.4245 9.63824 10.3192 9.89255 10.1317 10.0801C9.7677 10.4441 9.47892 10.8762 9.28189 11.3519C9.08487 11.8275 8.98346 12.3373 8.98346 12.8521C8.98346 13.3669 9.08487 13.8767 9.28189 14.3523C9.47892 14.8279 9.7677 15.2601 10.1317 15.6241C10.2246 15.717 10.2982 15.8273 10.3484 15.9486C10.3987 16.07 10.4245 16.2001 10.4244 16.3314C10.4244 16.4628 10.3985 16.5928 10.3482 16.7142C10.2979 16.8355 10.2242 16.9457 10.1312 17.0386C10.0383 17.1314 9.92805 17.2051 9.80668 17.2553C9.68531 17.3055 9.55524 17.3313 9.42389 17.3313C9.29254 17.3312 9.16249 17.3053 9.04116 17.255C8.91983 17.2047 8.80959 17.131 8.71675 17.0381C7.60657 15.9279 6.98289 14.4221 6.98289 12.8521C6.98289 11.282 7.60657 9.77629 8.71675 8.66608C8.80962 8.5731 8.91991 8.49934 9.04131 8.44902C9.1627 8.3987 9.29283 8.37279 9.42425 8.37279C9.55566 8.37279 9.68579 8.3987 9.80719 8.44902C9.92858 8.49934 10.0389 8.5731 10.1317 8.66608ZM17.0897 8.66608C18.1999 9.77629 18.8236 11.282 18.8236 12.8521C18.8236 14.4221 18.1999 15.9279 17.0897 17.0381C16.9011 17.2202 16.6485 17.321 16.3863 17.3188C16.1241 17.3165 15.8733 17.2113 15.6879 17.0259C15.5025 16.8405 15.3974 16.5897 15.3951 16.3275C15.3928 16.0653 15.4936 15.8127 15.6757 15.6241C16.0398 15.2601 16.3286 14.8279 16.5256 14.3523C16.7226 13.8767 16.824 13.3669 16.824 12.8521C16.824 12.3373 16.7226 11.8275 16.5256 11.3519C16.3286 10.8762 16.0398 10.4441 15.6757 10.0801C15.4936 9.89148 15.3928 9.63888 15.3951 9.37668C15.3974 9.11448 15.5025 8.86367 15.6879 8.67826C15.8733 8.49285 16.1241 8.38768 16.3863 8.38541C16.6485 8.38313 16.9011 8.48392 17.0897 8.66608ZM12.9037 11.4361C13.1007 11.4361 13.2958 11.4749 13.4778 11.5503C13.6598 11.6256 13.8251 11.7361 13.9644 11.8754C14.1037 12.0147 14.2142 12.1801 14.2896 12.3621C14.3649 12.544 14.4037 12.7391 14.4037 12.9361C14.4037 13.1331 14.3649 13.3281 14.2896 13.5101C14.2142 13.6921 14.1037 13.8575 13.9644 13.9967C13.8251 14.136 13.6598 14.2465 13.4778 14.3219C13.2958 14.3973 13.1007 14.4361 12.9037 14.4361C12.5059 14.4361 12.1244 14.278 11.8431 13.9967C11.5618 13.7154 11.4037 13.3339 11.4037 12.9361C11.4037 12.5383 11.5618 12.1567 11.8431 11.8754C12.1244 11.5941 12.5059 11.4361 12.9037 11.4361Z" fill="#1900B1"/>
</svg>
