<svg width="25" height="24" viewBox="0 0 25 24" fill="none" xmlns="http://www.w3.org/2000/svg">
<path d="M10.0935 19.2471H14.0935C14.2261 19.2471 14.3533 19.1944 14.4471 19.1006C14.5408 19.0069 14.5935 18.8797 14.5935 18.7471C14.5935 18.6145 14.5408 18.4873 14.4471 18.3935C14.3533 18.2997 14.2261 18.2471 14.0935 18.2471H10.0935C9.9609 18.2471 9.83372 18.2997 9.73995 18.3935C9.64618 18.4873 9.59351 18.6145 9.59351 18.7471C9.59351 18.8797 9.64618 19.0069 9.73995 19.1006C9.83372 19.1944 9.9609 19.2471 10.0935 19.2471Z" fill="black"/>
<path d="M16.8205 22.2519H7.36655C6.73916 22.2145 6.15193 21.9308 5.73262 21.4627C5.31331 20.9945 5.09585 20.3796 5.12755 19.7519V4.87793C5.09585 4.25022 5.31331 3.6354 5.73262 3.16721C6.15193 2.69902 6.73916 2.41536 7.36655 2.37793H16.8205C17.4479 2.41536 18.0352 2.69902 18.4545 3.16721C18.8738 3.6354 19.0912 4.25022 19.0595 4.87793V19.7519C19.0912 20.3796 18.8738 20.9945 18.4545 21.4627C18.0352 21.9308 17.4479 22.2145 16.8205 22.2519ZM7.36655 3.37793C7.00484 3.41614 6.67251 3.5946 6.44087 3.87503C6.20924 4.15546 6.09675 4.51551 6.12755 4.87793V19.7519C6.09675 20.1143 6.20924 20.4744 6.44087 20.7548C6.67251 21.0353 7.00484 21.2137 7.36655 21.2519H16.8205C17.1823 21.2137 17.5146 21.0353 17.7462 20.7548C17.9779 20.4744 18.0903 20.1143 18.0595 19.7519V4.87793C18.0903 4.51551 17.9779 4.15546 17.7462 3.87503C17.5146 3.5946 17.1823 3.41614 16.8205 3.37793H7.36655Z" fill="black"/>
</svg>
