<svg width="25" height="25" viewBox="0 0 25 25" fill="none" xmlns="http://www.w3.org/2000/svg">
<path d="M10.3905 17.03L6.14746 12.786L7.56146 11.372L10.3905 14.2L16.0465 8.54297L17.4615 9.95797L10.3905 17.028V17.03Z" fill="#018D29"/>
<path fill-rule="evenodd" clip-rule="evenodd" d="M1.14746 12.7158C1.14746 6.64082 6.07246 1.71582 12.1475 1.71582C18.2225 1.71582 23.1475 6.64082 23.1475 12.7158C23.1475 18.7908 18.2225 23.7158 12.1475 23.7158C6.07246 23.7158 1.14746 18.7908 1.14746 12.7158ZM12.1475 21.7158C10.9656 21.7158 9.79524 21.483 8.70331 21.0307C7.61138 20.5784 6.61923 19.9155 5.7835 19.0798C4.94777 18.2441 4.28484 17.2519 3.83255 16.16C3.38025 15.068 3.14746 13.8977 3.14746 12.7158C3.14746 11.5339 3.38025 10.3636 3.83255 9.27167C4.28484 8.17974 4.94777 7.18759 5.7835 6.35186C6.61923 5.51613 7.61138 4.8532 8.70331 4.4009C9.79524 3.94861 10.9656 3.71582 12.1475 3.71582C14.5344 3.71582 16.8236 4.66403 18.5114 6.35186C20.1992 8.03969 21.1475 10.3289 21.1475 12.7158C21.1475 15.1028 20.1992 17.392 18.5114 19.0798C16.8236 20.7676 14.5344 21.7158 12.1475 21.7158Z" fill="#018D29"/>
</svg>
